<svg id="svg" version="1.1" xmlns="http://www.w3.org/2000/svg" xmlns:xlink="http://www.w3.org/1999/xlink" width="400" height="400" viewBox="0, 0, 400,400"><g id="svgg"><path id="path0" d="M88.354 125.100 C 87.852 125.925,87.325 126.690,87.181 126.800 C 87.037 126.910,86.848 127.183,86.760 127.408 C 86.672 127.632,84.149 131.507,81.154 136.020 C 78.158 140.533,74.877 145.519,73.863 147.102 L 72.019 149.979 113.709 150.095 L 155.400 150.212 158.400 151.257 C 165.568 153.755,171.366 158.092,175.155 163.791 C 176.175 165.326,177.458 166.808,178.005 167.085 C 179.189 167.684,219.329 167.836,220.874 167.247 C 222.318 166.696,224.006 164.798,225.101 162.492 C 227.411 157.626,235.352 152.269,243.695 149.949 C 246.247 149.240,248.526 149.200,286.795 149.200 C 309.018 149.200,327.200 149.120,327.200 149.022 C 327.200 148.924,324.667 145.099,321.571 140.522 C 318.476 135.945,314.651 130.267,313.071 127.905 L 310.200 123.610 265.346 123.605 C 215.650 123.599,219.814 123.391,212.800 126.234 C 208.118 128.131,202.249 133.880,200.685 138.100 C 200.216 139.363,199.426 138.820,197.640 136.008 C 194.875 131.655,191.216 127.890,188.519 126.623 C 184.549 124.758,184.539 124.755,180.200 124.005 C 179.100 123.814,158.190 123.645,133.733 123.629 L 89.265 123.600 88.354 125.100 M265.600 224.799 L 265.600 289.611 264.585 293.906 C 262.789 301.499,258.898 310.341,256.126 313.129 C 255.837 313.419,255.600 313.826,255.600 314.033 C 255.600 314.537,244.497 325.684,243.100 326.584 C 241.710 327.478,241.716 327.540,243.400 330.173 C 244.170 331.377,244.800 332.535,244.800 332.747 C 244.800 332.960,244.938 333.193,245.107 333.267 C 245.277 333.340,246.919 335.830,248.757 338.800 C 250.594 341.770,252.162 344.270,252.239 344.356 C 252.855 345.041,266.652 332.379,271.949 326.269 C 275.654 321.995,279.369 315.349,281.409 309.349 C 281.998 307.617,282.628 305.840,282.810 305.400 C 282.991 304.960,283.237 304.150,283.356 303.600 C 283.475 303.050,283.854 301.430,284.198 300.000 C 286.450 290.638,286.418 291.803,286.305 223.600 L 286.200 160.200 275.900 160.093 L 265.600 159.986 265.600 224.799 M298.277 227.900 C 298.167 277.566,298.003 296.310,297.664 297.700 C 297.409 298.745,297.031 300.365,296.825 301.300 C 295.893 305.531,294.561 309.913,293.360 312.700 C 293.052 313.415,292.509 314.675,292.154 315.500 C 290.884 318.450,287.550 324.863,286.117 327.111 C 284.561 329.555,279.660 336.467,279.247 336.800 C 279.111 336.910,278.297 337.900,277.437 339.000 C 274.875 342.280,267.147 349.652,262.903 352.864 L 258.939 355.864 260.201 357.832 C 260.895 358.914,261.989 360.717,262.631 361.839 C 266.569 368.709,269.035 372.772,269.275 372.785 C 269.562 372.801,274.852 369.271,275.200 368.832 C 275.310 368.693,276.209 367.954,277.199 367.190 C 283.591 362.251,291.320 354.746,297.099 347.866 C 301.770 342.305,307.352 333.095,310.351 326.000 C 310.862 324.790,311.532 323.233,311.840 322.540 C 312.148 321.846,312.400 321.027,312.400 320.720 C 312.400 320.412,312.552 319.989,312.737 319.780 C 312.923 319.571,313.391 318.320,313.777 317.000 C 314.985 312.875,315.301 311.831,315.655 310.800 C 316.042 309.673,317.308 303.900,318.288 298.800 C 318.872 295.757,318.955 288.301,319.076 227.700 L 319.211 160.000 308.819 160.000 L 298.426 160.000 298.277 227.900 M80.800 228.176 C 80.800 275.502,80.932 296.478,81.239 298.176 C 82.058 302.699,82.908 306.591,83.688 309.400 C 84.116 310.940,84.556 312.560,84.666 313.000 C 84.777 313.440,85.017 314.160,85.200 314.600 C 85.384 315.040,86.026 316.840,86.628 318.600 C 90.400 329.638,97.870 342.143,105.976 350.990 C 112.569 358.184,121.625 366.205,128.699 371.115 L 131.171 372.831 132.109 371.315 C 132.626 370.482,134.978 366.725,137.337 362.966 C 141.363 356.550,142.087 354.800,140.719 354.800 C 139.987 354.800,133.428 349.829,129.643 346.405 C 116.817 334.803,107.925 319.917,103.477 302.600 L 102.244 297.800 102.022 229.286 L 101.800 160.773 91.300 160.686 L 80.800 160.600 80.800 228.176 M114.539 161.014 C 114.099 162.162,114.631 298.264,115.080 299.400 C 115.341 300.060,116.128 302.400,116.829 304.600 C 117.946 308.108,119.294 311.439,120.957 314.800 C 122.384 317.686,126.564 324.687,127.166 325.200 C 127.295 325.310,128.024 326.210,128.786 327.200 C 132.062 331.453,136.529 335.914,140.800 339.196 C 141.790 339.957,142.690 340.682,142.800 340.808 C 142.910 340.933,144.202 341.787,145.671 342.706 L 148.342 344.376 149.687 342.488 C 152.325 338.783,159.263 327.590,159.133 327.249 C 159.060 327.057,157.740 325.956,156.200 324.801 C 152.831 322.275,147.225 316.671,144.781 313.387 C 143.804 312.074,142.904 310.910,142.781 310.800 C 141.845 309.961,138.387 303.050,137.278 299.800 C 135.073 293.338,135.200 297.796,135.200 226.568 C 135.200 190.395,135.065 160.797,134.900 160.793 C 125.472 160.567,114.665 160.685,114.539 161.014 " stroke="none" fill="#14449c" fill-rule="evenodd"></path><path id="path1" d="M193.000 0.443 C 189.399 1.110,185.020 2.048,184.000 2.371 C 183.450 2.546,182.280 2.914,181.400 3.191 C 180.520 3.467,178.662 4.212,177.272 4.847 C 175.882 5.481,174.676 6.000,174.594 6.000 C 173.453 6.000,162.253 13.993,158.787 17.281 C 150.762 24.892,145.912 34.590,143.324 48.200 C 142.375 53.190,142.281 70.628,143.200 71.208 C 143.989 71.707,256.385 71.724,257.173 71.225 C 258.393 70.453,259.148 59.153,258.404 52.790 C 257.529 45.305,254.765 35.362,252.792 32.600 C 252.635 32.380,251.920 31.120,251.204 29.800 C 245.542 19.364,234.619 9.949,221.600 4.284 C 214.559 1.220,199.632 -0.784,193.000 0.443 M144.000 75.960 C 144.000 76.159,144.526 77.554,145.169 79.060 L 146.337 81.800 200.468 81.800 L 254.599 81.800 255.462 80.000 C 255.936 79.010,256.446 77.615,256.594 76.900 L 256.864 75.600 200.432 75.600 C 167.209 75.600,144.000 75.748,144.000 75.960 M148.800 86.417 C 148.800 86.646,149.526 87.816,150.413 89.017 L 152.025 91.200 200.143 91.200 L 248.261 91.200 249.088 90.300 C 250.006 89.302,251.596 86.768,251.599 86.300 C 251.599 86.135,228.470 86.000,200.200 86.000 C 164.797 86.000,148.800 86.130,148.800 86.417 M156.658 96.276 C 156.506 96.427,157.144 97.327,158.074 98.276 L 159.767 100.000 200.011 100.000 L 240.256 100.000 241.928 98.569 C 245.148 95.812,248.191 96.000,200.267 96.000 C 176.433 96.000,156.809 96.124,156.658 96.276 M167.246 106.343 C 170.016 108.502,168.378 108.401,200.280 108.391 L 229.800 108.382 232.000 107.000 L 234.200 105.618 200.246 105.609 C 167.079 105.600,166.314 105.617,167.246 106.343 M180.431 114.394 C 184.472 116.757,196.969 118.389,205.172 117.625 C 211.522 117.033,221.600 114.922,221.600 114.183 C 221.600 114.082,212.195 114.005,200.700 114.012 C 187.732 114.020,180.040 114.164,180.431 114.394 M177.477 245.500 C 177.335 324.486,177.613 318.198,174.001 324.078 C 172.608 326.345,171.273 328.563,171.034 329.006 C 170.795 329.449,170.195 330.377,169.700 331.067 C 169.205 331.758,168.800 332.434,168.800 332.570 C 168.800 332.705,168.317 333.577,167.727 334.508 C 166.328 336.713,149.743 364.177,148.709 366.000 C 148.020 367.215,143.474 374.681,141.646 377.600 C 141.302 378.150,140.656 379.234,140.210 380.008 C 139.765 380.783,138.500 382.908,137.400 384.730 C 136.300 386.553,135.066 388.619,134.658 389.322 C 134.250 390.025,132.652 392.631,131.105 395.114 C 129.559 397.596,128.379 399.712,128.482 399.815 C 128.585 399.918,160.919 399.957,200.336 399.901 L 272.002 399.800 267.601 392.438 C 265.180 388.389,263.200 385.012,263.200 384.934 C 263.200 384.855,262.300 383.355,261.200 381.600 C 260.100 379.845,259.200 378.331,259.200 378.236 C 259.200 378.096,257.519 375.254,254.802 370.800 C 254.183 369.785,251.889 365.846,251.425 365.000 C 251.184 364.560,250.697 363.750,250.344 363.200 C 249.990 362.650,247.853 359.050,245.593 355.200 C 241.403 348.059,237.486 341.478,236.785 340.400 C 236.570 340.070,236.272 339.530,236.122 339.200 C 235.972 338.870,235.253 337.664,234.524 336.519 C 233.796 335.375,233.200 334.338,233.200 334.215 C 233.200 334.092,232.293 332.508,231.185 330.696 C 230.076 328.883,229.004 327.130,228.803 326.800 C 228.244 325.886,225.962 321.951,225.206 320.600 C 223.079 316.795,223.200 321.337,223.200 245.129 L 223.200 174.800 214.600 174.800 L 206.000 174.800 206.000 247.334 C 206.000 329.724,205.699 323.279,209.818 329.000 C 210.293 329.660,210.795 330.470,210.935 330.800 C 211.074 331.130,212.419 333.380,213.925 335.800 C 215.431 338.220,217.535 341.640,218.601 343.400 C 219.666 345.160,220.930 347.230,221.409 348.000 C 221.888 348.770,223.809 351.920,225.677 355.000 C 227.546 358.080,230.820 363.467,232.953 366.971 C 235.086 370.475,236.740 373.580,236.628 373.871 C 236.379 374.521,163.814 374.670,163.413 374.021 C 163.285 373.813,166.649 367.871,170.890 360.817 C 175.130 353.763,179.050 347.227,179.600 346.293 C 180.417 344.905,182.331 341.714,184.813 337.600 C 185.012 337.270,186.493 334.840,188.105 332.200 C 189.716 329.560,191.435 326.573,191.923 325.562 C 194.105 321.046,194.000 325.032,194.000 246.980 L 194.000 174.800 185.802 174.800 L 177.604 174.800 177.477 245.500 " stroke="none" fill="#d0a012" fill-rule="evenodd"></path><path id="path2" d="M0.000 200.000 L 0.000 400.000 63.909 400.000 L 127.818 400.000 128.599 398.500 C 129.028 397.675,130.689 394.886,132.290 392.303 C 133.890 389.720,135.200 387.513,135.200 387.400 C 135.200 387.287,136.518 385.080,138.128 382.497 C 139.739 379.914,141.176 377.530,141.322 377.200 C 141.468 376.870,143.145 374.080,145.048 371.000 C 146.952 367.920,148.820 364.860,149.200 364.200 C 149.579 363.540,152.460 358.770,155.602 353.600 C 158.744 348.430,162.157 342.760,163.187 341.000 C 164.216 339.240,165.990 336.317,167.129 334.504 C 168.268 332.692,169.200 331.089,169.200 330.942 C 169.200 330.795,169.650 330.086,170.200 329.364 C 170.750 328.643,171.200 327.946,171.200 327.815 C 171.200 327.684,172.297 325.835,173.638 323.707 C 174.989 321.564,176.163 319.203,176.270 318.418 C 176.377 317.638,176.632 316.640,176.837 316.200 C 177.063 315.716,177.248 287.493,177.306 244.800 L 177.400 174.200 185.800 174.200 L 194.200 174.200 194.312 246.200 C 194.391 296.788,194.295 318.964,193.989 320.768 C 193.421 324.110,192.114 326.767,187.197 334.573 C 185.878 336.665,184.800 338.474,184.800 338.592 C 184.800 338.763,180.014 346.675,178.383 349.200 C 178.169 349.530,177.871 350.070,177.719 350.400 C 177.567 350.730,176.390 352.710,175.103 354.800 C 173.817 356.890,172.608 358.870,172.417 359.200 C 172.226 359.530,170.254 362.812,168.035 366.494 C 165.816 370.176,164.000 373.371,164.000 373.594 C 164.000 373.866,175.995 374.000,200.200 374.000 C 220.110 374.000,236.400 373.892,236.400 373.760 C 236.400 373.628,234.780 370.916,232.800 367.735 C 230.820 364.553,229.200 361.883,229.200 361.801 C 229.200 361.719,227.400 358.758,225.200 355.220 C 223.000 351.682,221.200 348.710,221.200 348.617 C 221.200 348.523,219.705 346.046,217.877 343.112 C 216.049 340.178,214.427 337.512,214.272 337.189 C 214.118 336.865,213.635 336.060,213.200 335.400 C 212.765 334.740,212.281 333.930,212.125 333.600 C 211.970 333.270,210.798 331.340,209.521 329.311 C 208.244 327.283,207.200 325.294,207.200 324.891 C 207.200 324.489,207.039 323.989,206.843 323.780 C 205.223 322.057,205.200 320.953,205.200 246.229 L 205.200 174.815 206.100 174.594 C 206.595 174.473,210.690 174.424,215.200 174.487 L 223.400 174.600 223.600 245.600 L 223.800 316.600 225.522 320.000 C 227.372 323.655,227.397 323.699,229.800 327.600 C 232.083 331.306,232.335 331.729,232.656 332.400 C 232.814 332.730,233.811 334.393,234.872 336.096 C 235.932 337.798,236.800 339.281,236.800 339.391 C 236.800 339.501,237.766 341.168,238.947 343.095 C 240.129 345.023,243.213 350.200,245.803 354.600 C 248.392 359.000,251.475 364.177,252.655 366.105 C 253.835 368.032,254.800 369.699,254.800 369.809 C 254.800 369.919,255.700 371.445,256.800 373.200 C 257.900 374.955,258.800 376.488,258.800 376.605 C 258.800 376.723,259.504 377.940,260.364 379.310 C 261.224 380.679,262.439 382.706,263.064 383.813 C 263.689 384.921,266.090 389.012,268.400 392.906 L 272.600 399.986 336.300 399.993 L 400.000 400.000 400.000 200.000 L 400.000 0.000 303.500 0.060 C 250.425 0.093,207.540 0.186,208.200 0.267 C 210.641 0.566,218.091 2.430,218.580 2.863 C 218.789 3.048,219.273 3.200,219.656 3.200 C 220.039 3.200,221.904 3.920,223.800 4.800 C 225.696 5.680,227.339 6.400,227.452 6.400 C 227.565 6.400,229.399 7.563,231.528 8.984 C 244.804 17.843,252.998 28.712,257.171 43.000 C 259.117 49.662,259.674 63.993,258.212 69.800 L 257.709 71.800 200.504 71.901 C 147.666 71.995,143.258 71.952,142.750 71.340 C 141.991 70.426,141.974 53.084,142.728 48.800 C 145.001 35.882,149.661 26.043,157.104 18.447 C 166.446 8.913,178.160 2.572,190.400 0.423 C 191.390 0.249,148.955 0.083,96.100 0.053 L 0.000 0.000 0.000 200.000 M256.987 76.900 C 256.674 78.781,255.569 81.196,254.687 81.928 C 254.250 82.290,241.327 82.379,200.157 82.301 L 146.200 82.200 145.137 80.000 C 144.553 78.790,143.953 77.215,143.805 76.500 L 143.536 75.200 200.403 75.200 L 257.270 75.200 256.987 76.900 M252.400 86.228 C 252.400 86.598,250.145 89.710,249.013 90.900 L 247.968 92.000 200.054 92.000 L 152.139 92.000 151.348 91.100 C 150.256 89.858,148.400 86.905,148.400 86.409 C 148.400 86.133,165.272 86.000,200.400 86.000 C 229.000 86.000,252.400 86.103,252.400 86.228 M244.400 96.360 C 244.400 96.558,243.395 97.638,242.168 98.760 L 239.936 100.800 199.973 100.800 L 160.011 100.800 158.005 98.805 C 156.902 97.708,156.000 96.628,156.000 96.405 C 156.000 96.134,170.618 96.000,200.200 96.000 C 226.113 96.000,244.400 96.149,244.400 96.360 M234.560 105.536 C 234.675 105.721,233.654 106.531,232.293 107.336 L 229.818 108.800 200.009 108.799 L 170.200 108.797 167.898 107.267 C 166.632 106.425,165.717 105.616,165.865 105.468 C 166.260 105.074,234.316 105.141,234.560 105.536 M222.456 113.800 C 222.569 114.618,219.674 115.596,212.200 117.264 C 208.835 118.015,191.494 118.005,188.200 117.250 C 182.937 116.043,178.800 114.414,178.800 113.548 C 178.800 113.038,222.385 113.290,222.456 113.800 M182.621 123.980 C 189.340 125.659,193.200 128.541,197.650 135.201 L 199.792 138.406 200.487 137.503 C 200.869 137.006,201.186 136.453,201.191 136.273 C 201.279 133.043,209.890 126.472,217.000 124.209 L 220.200 123.191 265.385 123.295 L 310.571 123.400 314.353 129.000 C 316.433 132.080,320.355 137.891,323.067 141.913 C 326.200 146.559,327.817 149.292,327.499 149.409 C 327.225 149.510,308.460 149.643,285.800 149.704 L 244.600 149.815 241.600 150.977 C 233.288 154.194,227.786 158.311,225.111 163.314 C 224.430 164.587,223.266 166.162,222.523 166.814 L 221.172 168.000 199.760 168.000 C 175.359 168.000,177.572 168.364,174.603 163.857 C 171.223 158.724,166.884 155.244,160.400 152.465 C 156.464 150.778,157.099 150.800,113.351 150.800 C 90.414 150.800,71.563 150.663,71.459 150.496 C 71.356 150.328,73.230 147.223,75.624 143.596 C 78.017 139.968,82.006 133.897,84.488 130.105 L 89.000 123.210 134.249 123.205 C 177.790 123.200,179.617 123.229,182.621 123.980 M286.723 224.200 C 286.812 271.005,286.721 289.365,286.390 291.400 C 285.895 294.441,284.974 298.974,284.400 301.200 C 283.564 304.435,282.698 307.453,282.391 308.200 C 282.210 308.640,281.739 309.900,281.345 311.000 C 277.631 321.360,268.236 332.739,254.596 343.400 C 252.233 345.247,252.252 345.264,246.535 336.200 L 241.237 327.800 243.908 325.400 C 256.495 314.089,261.479 306.013,264.599 291.875 C 265.120 289.513,265.200 280.567,265.200 224.642 C 265.200 189.162,265.323 160.010,265.473 159.860 C 265.623 159.710,270.438 159.635,276.173 159.694 L 286.600 159.800 286.723 224.200 M319.525 226.000 C 319.648 291.316,319.592 295.033,318.398 300.600 C 318.210 301.480,317.768 303.550,317.417 305.200 C 315.126 315.965,309.550 330.694,305.605 336.400 C 305.225 336.950,304.843 337.586,304.757 337.813 C 302.282 344.327,285.003 362.349,272.925 371.016 C 268.895 373.907,269.544 374.362,263.624 364.500 L 258.402 355.800 259.301 355.083 C 259.795 354.688,261.730 353.184,263.600 351.739 C 274.355 343.431,285.071 329.892,290.834 317.330 C 292.839 312.961,293.500 311.183,295.572 304.600 C 295.780 303.940,296.158 302.320,296.412 301.000 C 298.001 292.751,297.971 294.198,297.986 225.693 L 298.000 159.587 308.700 159.693 L 319.400 159.800 319.525 226.000 M102.557 160.633 C 102.691 160.981,102.800 191.840,102.800 229.208 C 102.800 300.904,102.723 297.413,104.455 304.400 C 109.068 323.016,122.919 342.582,139.092 353.329 C 142.769 355.772,142.669 355.428,140.614 358.557 C 139.647 360.030,138.798 361.374,138.728 361.544 C 138.232 362.743,131.704 372.822,131.327 372.969 C 129.074 373.850,107.360 354.248,100.787 345.400 C 99.807 344.080,98.899 342.910,98.770 342.800 C 94.331 339.014,84.914 317.727,82.137 305.200 C 80.386 297.304,80.429 299.243,80.414 227.900 L 80.400 160.000 91.357 160.000 C 100.980 160.000,102.344 160.077,102.557 160.633 M135.294 160.100 C 135.346 160.155,135.483 190.350,135.599 227.200 L 135.809 294.200 136.948 297.593 C 140.759 308.944,147.927 318.434,158.100 325.598 C 160.427 327.236,160.498 326.653,157.400 331.385 C 155.970 333.569,154.800 335.407,154.800 335.470 C 154.800 335.533,153.926 336.893,152.858 338.492 C 151.789 340.092,150.437 342.165,149.853 343.100 C 148.527 345.220,148.722 345.240,144.762 342.574 C 135.792 336.536,127.966 328.274,123.190 319.800 C 119.862 313.896,117.186 307.988,116.122 304.200 C 115.814 303.100,115.264 301.300,114.900 300.200 C 114.298 298.377,114.228 292.076,114.113 229.100 L 113.987 160.000 124.593 160.000 C 130.427 160.000,135.242 160.045,135.294 160.100 " stroke="none" fill="#fbfbfb" fill-rule="evenodd"></path><path id="path3" d="M190.400 0.423 C 170.077 3.991,152.157 18.655,145.704 37.000 C 144.693 39.874,143.943 42.827,144.105 43.294 C 144.201 43.572,144.412 43.170,144.573 42.400 C 146.358 33.863,152.213 23.516,158.787 17.281 C 162.253 13.993,173.453 6.000,174.594 6.000 C 174.676 6.000,175.882 5.481,177.272 4.847 C 178.662 4.212,180.520 3.467,181.400 3.191 C 182.280 2.914,183.450 2.546,184.000 2.371 C 185.063 2.034,189.683 1.050,193.000 0.454 C 194.631 0.161,194.741 0.096,193.600 0.101 C 192.830 0.104,191.390 0.249,190.400 0.423 M205.000 0.370 C 205.440 0.576,206.484 0.756,207.321 0.772 C 208.158 0.787,210.094 1.085,211.623 1.433 C 213.153 1.780,214.629 1.984,214.902 1.884 C 215.176 1.784,214.680 1.574,213.800 1.418 C 212.920 1.261,211.660 0.978,211.000 0.790 C 209.199 0.274,204.021 -0.088,205.000 0.370 M216.000 2.329 C 216.912 2.881,219.079 3.332,218.600 2.870 C 218.380 2.658,217.570 2.367,216.800 2.225 C 215.889 2.056,215.610 2.092,216.000 2.329 M219.600 3.480 C 232.298 8.073,245.284 18.888,251.204 29.800 C 251.920 31.120,252.635 32.380,252.792 32.600 C 253.372 33.412,255.947 40.275,256.544 42.600 C 256.883 43.920,257.346 45.720,257.573 46.600 L 257.986 48.200 257.789 46.219 C 257.570 44.003,257.292 43.048,255.285 37.600 C 251.138 26.343,243.182 16.761,231.528 8.984 C 229.399 7.563,227.565 6.400,227.452 6.400 C 227.339 6.400,225.696 5.680,223.800 4.800 C 221.904 3.920,220.048 3.214,219.676 3.232 C 219.128 3.257,219.114 3.304,219.600 3.480 M143.453 44.853 C 142.379 50.308,142.200 52.647,142.200 61.239 C 142.200 68.660,142.318 70.819,142.750 71.340 C 143.677 72.457,257.722 72.148,257.938 71.028 C 258.077 70.306,258.044 70.299,257.415 70.928 C 256.637 71.706,144.422 71.981,143.200 71.208 C 142.255 70.611,142.381 53.154,143.368 48.079 C 143.765 46.032,143.989 44.256,143.865 44.132 C 143.741 44.007,143.555 44.332,143.453 44.853 M258.254 51.400 C 258.388 53.160,258.565 54.675,258.649 54.767 C 258.975 55.126,258.722 49.752,258.377 49.000 C 258.141 48.484,258.097 49.334,258.254 51.400 M258.942 59.400 C 258.941 61.380,259.008 62.240,259.092 61.312 C 259.176 60.384,259.177 58.764,259.095 57.712 C 259.012 56.660,258.943 57.420,258.942 59.400 M258.474 64.200 C 258.429 64.860,258.300 66.390,258.186 67.600 C 258.018 69.387,258.060 69.616,258.407 68.819 C 258.642 68.280,258.771 66.750,258.694 65.419 C 258.617 64.089,258.518 63.540,258.474 64.200 M143.632 75.900 C 143.650 76.318,143.744 76.399,143.865 76.100 C 144.025 75.703,155.721 75.600,200.465 75.600 L 256.864 75.600 256.594 76.900 C 256.446 77.615,255.936 79.010,255.462 80.000 L 254.599 81.800 200.454 81.800 L 146.310 81.800 145.268 79.260 C 144.695 77.864,144.161 76.917,144.081 77.157 C 144.001 77.397,144.445 78.630,145.068 79.897 L 146.200 82.200 200.157 82.301 C 241.327 82.379,254.250 82.290,254.687 81.928 C 255.569 81.196,256.674 78.781,256.987 76.900 L 257.270 75.200 200.435 75.200 C 146.561 75.200,143.602 75.236,143.632 75.900 M148.432 86.309 C 148.397 86.873,150.119 89.703,151.348 91.100 L 152.139 92.000 200.054 92.000 L 247.968 92.000 249.013 90.900 C 250.145 89.710,252.400 86.598,252.400 86.228 C 252.400 85.549,251.667 86.171,251.123 87.311 C 250.779 88.033,250.010 89.203,249.413 89.911 L 248.329 91.200 200.177 91.200 L 152.025 91.200 150.477 89.100 C 149.626 87.945,148.824 86.730,148.696 86.400 C 148.546 86.014,148.452 85.982,148.432 86.309 M156.000 96.405 C 156.000 96.628,156.902 97.708,158.005 98.805 L 160.011 100.800 199.973 100.800 L 239.936 100.800 242.168 98.760 C 244.319 96.794,244.846 96.000,244.000 96.000 C 243.780 96.000,243.600 96.256,243.600 96.569 C 243.600 96.882,242.848 97.782,241.928 98.569 L 240.256 100.000 200.011 100.000 L 159.767 100.000 158.074 98.276 C 157.144 97.327,156.506 96.427,156.658 96.276 C 156.809 96.124,156.723 96.000,156.467 96.000 C 156.210 96.000,156.000 96.182,156.000 96.405 M165.865 105.468 C 165.717 105.616,166.632 106.425,167.898 107.267 L 170.200 108.797 200.009 108.799 L 229.818 108.800 232.293 107.336 C 233.654 106.531,234.675 105.721,234.560 105.536 C 234.316 105.141,166.260 105.074,165.865 105.468 M232.000 107.000 L 229.800 108.382 200.280 108.391 C 168.378 108.401,170.016 108.502,167.246 106.343 C 166.314 105.617,167.079 105.600,200.246 105.609 L 234.200 105.618 232.000 107.000 M178.894 113.697 C 179.087 114.291,181.419 115.464,183.051 115.788 C 184.331 116.043,184.491 116.137,181.000 114.585 C 179.980 114.131,182.932 114.047,200.700 114.026 C 212.195 114.012,221.600 114.082,221.600 114.183 C 221.600 114.794,213.140 116.727,207.400 117.427 L 203.000 117.964 206.923 117.791 C 209.080 117.696,211.510 117.450,212.323 117.245 C 213.135 117.039,215.150 116.558,216.800 116.175 C 220.172 115.393,222.538 114.399,222.456 113.800 C 222.420 113.540,214.740 113.364,200.566 113.297 C 183.162 113.214,178.764 113.295,178.894 113.697 M185.000 116.377 C 186.804 117.105,189.752 117.590,193.467 117.769 L 197.400 117.960 194.000 117.586 C 192.130 117.380,189.363 116.940,187.851 116.606 C 184.890 115.953,183.716 115.859,185.000 116.377 M177.475 174.259 C 177.324 174.410,177.200 206.353,177.200 245.243 C 177.200 284.743,177.047 316.047,176.853 316.167 C 176.662 316.285,176.417 317.151,176.309 318.091 C 176.173 319.274,175.356 320.997,173.656 323.689 C 172.305 325.827,171.200 327.684,171.200 327.815 C 171.200 327.946,170.750 328.643,170.200 329.364 C 169.650 330.086,169.200 330.795,169.200 330.942 C 169.200 331.089,168.268 332.692,167.129 334.504 C 165.990 336.317,164.216 339.240,163.187 341.000 C 162.157 342.760,158.744 348.430,155.602 353.600 C 152.460 358.770,149.579 363.540,149.200 364.200 C 148.820 364.860,146.952 367.920,145.048 371.000 C 143.145 374.080,141.468 376.870,141.322 377.200 C 141.176 377.530,139.739 379.914,138.128 382.497 C 136.518 385.080,135.200 387.290,135.200 387.408 C 135.200 387.526,134.122 389.335,132.803 391.427 C 130.131 395.668,128.000 399.405,128.000 399.849 C 128.000 400.080,130.782 395.648,135.185 388.400 C 137.088 385.266,139.552 381.153,140.210 380.008 C 140.656 379.234,141.302 378.150,141.646 377.600 C 143.474 374.681,148.020 367.215,148.709 366.000 C 149.743 364.177,166.328 336.713,167.727 334.508 C 168.317 333.577,168.800 332.705,168.800 332.570 C 168.800 332.434,169.205 331.758,169.700 331.067 C 170.195 330.377,170.795 329.449,171.034 329.006 C 171.273 328.563,172.608 326.345,174.001 324.078 C 177.613 318.198,177.335 324.486,177.477 245.500 L 177.604 174.800 185.801 174.800 L 193.998 174.800 194.101 247.300 L 194.203 319.800 194.202 247.000 L 194.200 174.200 185.975 174.092 C 181.451 174.033,177.626 174.108,177.475 174.259 M205.700 174.661 C 204.844 175.013,204.983 316.670,205.843 320.521 C 206.196 322.104,206.646 323.571,206.843 323.780 C 207.039 323.989,207.200 324.489,207.200 324.891 C 207.200 325.294,208.244 327.283,209.521 329.311 C 210.798 331.340,211.970 333.270,212.125 333.600 C 212.281 333.930,212.765 334.740,213.200 335.400 C 213.635 336.060,214.118 336.865,214.272 337.189 C 214.427 337.512,216.049 340.178,217.877 343.112 C 219.705 346.046,221.200 348.523,221.200 348.617 C 221.200 348.710,223.000 351.682,225.200 355.220 C 227.400 358.758,229.200 361.719,229.200 361.801 C 229.200 361.883,230.820 364.553,232.800 367.735 C 234.780 370.916,236.400 373.628,236.400 373.760 C 236.400 373.892,220.110 374.000,200.200 374.000 C 175.995 374.000,164.000 373.866,164.000 373.594 C 164.000 373.371,165.816 370.176,168.035 366.494 C 170.254 362.812,172.226 359.530,172.417 359.200 C 173.049 358.109,177.607 350.612,178.010 350.000 C 178.227 349.670,178.526 349.130,178.674 348.800 C 178.823 348.470,180.261 346.086,181.872 343.503 C 183.482 340.920,184.800 338.710,184.800 338.592 C 184.800 338.474,185.878 336.665,187.197 334.573 C 191.867 327.160,193.494 323.947,193.795 321.544 C 193.954 320.276,193.910 320.019,193.635 320.600 C 193.427 321.040,193.244 321.726,193.228 322.125 C 193.184 323.271,191.320 326.940,188.125 332.170 C 186.503 334.827,185.012 337.270,184.813 337.600 C 182.331 341.714,180.417 344.905,179.600 346.293 C 179.050 347.227,175.130 353.763,170.890 360.817 C 166.649 367.871,163.285 373.813,163.413 374.021 C 163.814 374.670,236.379 374.521,236.628 373.871 C 236.740 373.580,235.086 370.475,232.953 366.971 C 230.820 363.467,227.546 358.080,225.677 355.000 C 223.809 351.920,221.888 348.770,221.409 348.000 C 220.930 347.230,219.666 345.160,218.601 343.400 C 217.535 341.640,215.431 338.220,213.925 335.800 C 212.419 333.380,211.074 331.130,210.935 330.800 C 210.795 330.470,210.293 329.660,209.818 329.000 C 205.699 323.279,206.000 329.724,206.000 247.334 L 206.000 174.800 214.600 174.800 L 223.200 174.800 223.200 245.129 C 223.200 321.337,223.079 316.795,225.206 320.600 C 225.962 321.951,228.244 325.886,228.803 326.800 C 229.004 327.130,230.076 328.883,231.185 330.696 C 232.293 332.508,233.200 334.092,233.200 334.215 C 233.200 334.411,234.833 337.152,236.303 339.423 C 236.579 339.851,236.927 340.470,237.076 340.800 C 237.226 341.130,238.279 342.930,239.417 344.800 C 240.555 346.670,243.334 351.350,245.593 355.200 C 247.853 359.050,249.990 362.650,250.344 363.200 C 250.697 363.750,251.184 364.560,251.425 365.000 C 251.889 365.846,254.183 369.785,254.802 370.800 C 257.519 375.254,259.200 378.096,259.200 378.236 C 259.200 378.331,260.071 379.802,261.136 381.504 C 262.201 383.207,263.146 384.786,263.236 385.012 C 263.699 386.178,272.139 399.995,272.294 399.840 C 272.393 399.740,270.450 396.270,267.976 392.129 C 265.502 387.988,263.025 383.791,262.472 382.803 C 261.919 381.815,260.866 380.069,260.133 378.922 C 259.400 377.776,258.800 376.738,258.800 376.615 C 258.800 376.492,257.900 374.955,256.800 373.200 C 255.700 371.445,254.800 369.919,254.800 369.809 C 254.800 369.699,253.835 368.032,252.655 366.105 C 251.475 364.177,248.392 359.000,245.803 354.600 C 243.213 350.200,240.129 345.023,238.947 343.095 C 237.766 341.168,236.800 339.501,236.800 339.391 C 236.800 339.281,235.932 337.798,234.872 336.096 C 233.811 334.393,232.814 332.730,232.656 332.400 C 232.335 331.729,232.083 331.306,229.800 327.600 C 227.397 323.699,227.372 323.655,225.522 320.000 L 223.800 316.600 223.600 245.600 L 223.400 174.600 214.800 174.528 C 210.070 174.488,205.975 174.548,205.700 174.661 " stroke="none" fill="#ecd894" fill-rule="evenodd"></path><path id="path4" d="M84.488 130.105 C 82.006 133.897,78.017 139.968,75.624 143.596 C 73.230 147.223,71.356 150.328,71.459 150.496 C 71.563 150.663,90.414 150.800,113.351 150.800 C 150.061 150.800,155.308 150.875,157.167 151.427 C 159.959 152.257,160.248 151.878,157.528 150.953 C 155.538 150.275,152.703 150.220,113.709 150.104 L 72.019 149.979 73.863 147.102 C 74.877 145.519,78.158 140.533,81.154 136.020 C 84.149 131.507,86.672 127.632,86.760 127.408 C 86.848 127.183,87.037 126.910,87.181 126.800 C 87.325 126.690,87.856 125.919,88.362 125.087 L 89.281 123.574 135.426 123.687 C 160.806 123.749,181.263 123.678,180.886 123.528 C 180.509 123.379,159.680 123.246,134.600 123.233 L 89.000 123.210 84.488 130.105 M216.800 124.239 C 209.777 126.559,201.277 133.112,201.191 136.273 C 201.186 136.453,200.869 137.006,200.487 137.503 L 199.792 138.406 197.650 135.201 C 194.416 130.361,191.528 127.575,188.000 125.891 C 185.125 124.518,181.043 123.405,182.400 124.364 C 182.730 124.597,183.407 124.791,183.905 124.794 C 184.403 124.797,185.123 124.969,185.505 125.174 C 185.887 125.380,187.243 126.036,188.519 126.631 C 191.216 127.889,194.868 131.643,197.640 136.008 C 199.426 138.820,200.216 139.363,200.685 138.100 C 202.249 133.880,208.118 128.131,212.800 126.234 C 219.814 123.391,215.650 123.599,265.346 123.605 L 310.200 123.610 313.071 127.905 C 314.651 130.267,318.476 135.945,321.571 140.522 C 324.667 145.099,327.200 148.924,327.200 149.022 C 327.200 149.120,308.885 149.213,286.500 149.228 C 264.115 149.244,245.491 149.379,245.114 149.528 C 244.364 149.826,326.689 149.707,327.499 149.409 C 327.817 149.292,326.200 146.559,323.067 141.913 C 320.355 137.891,316.433 132.080,314.353 129.000 L 310.571 123.400 265.185 123.324 L 219.800 123.248 216.800 124.239 M240.917 150.779 C 233.676 153.385,227.109 158.262,225.077 162.542 C 224.003 164.803,222.309 166.700,220.874 167.247 C 219.329 167.836,179.189 167.684,178.005 167.085 C 177.458 166.808,176.175 165.326,175.155 163.791 C 173.144 160.766,169.548 157.123,167.000 155.528 C 163.648 153.429,160.734 151.956,160.276 152.128 C 160.002 152.231,160.139 152.424,160.600 152.583 C 162.343 153.184,166.278 155.442,168.200 156.945 C 171.361 159.416,172.461 160.604,174.603 163.857 C 177.572 168.364,175.359 168.000,199.760 168.000 L 221.172 168.000 222.523 166.814 C 223.266 166.162,224.430 164.587,225.111 163.314 C 227.784 158.315,233.991 153.673,241.307 151.202 C 242.788 150.701,244.000 150.226,244.000 150.146 C 244.000 149.836,242.918 150.058,240.917 150.779 M265.473 159.860 C 265.323 160.010,265.200 189.162,265.200 224.642 C 265.200 281.439,265.126 289.469,264.581 291.819 C 264.241 293.286,264.031 294.692,264.115 294.944 C 264.199 295.195,264.567 294.073,264.934 292.451 C 265.541 289.765,265.600 283.724,265.600 224.744 L 265.600 159.986 275.900 160.093 L 286.200 160.200 286.200 226.102 C 286.200 262.349,286.336 291.481,286.501 290.842 C 286.667 290.202,286.757 260.456,286.701 224.739 L 286.600 159.800 276.173 159.694 C 270.438 159.635,265.623 159.710,265.473 159.860 M298.099 225.693 L 298.198 291.800 298.300 225.900 L 298.402 160.000 308.801 160.000 L 319.200 160.000 319.192 226.500 C 319.185 282.728,319.095 293.494,318.606 296.200 C 317.951 299.823,317.832 302.300,318.414 300.200 C 319.573 296.015,319.647 291.033,319.525 226.000 L 319.400 159.800 308.700 159.693 L 298.000 159.587 298.099 225.693 M80.414 227.900 C 80.428 295.685,80.540 301.874,81.774 303.107 C 82.104 303.437,81.679 299.601,81.165 297.600 C 80.958 296.797,80.804 267.292,80.802 228.400 L 80.800 160.600 91.300 160.686 L 101.800 160.773 102.022 229.286 L 102.244 297.800 103.477 302.600 C 107.925 319.917,116.817 334.803,129.643 346.405 C 133.428 349.829,139.987 354.800,140.719 354.800 C 142.087 354.800,141.363 356.550,137.337 362.966 C 134.978 366.725,132.626 370.482,132.109 371.315 L 131.171 372.831 128.699 371.115 C 108.711 357.242,93.228 337.915,86.628 318.600 C 86.026 316.840,85.387 315.040,85.207 314.600 C 84.775 313.544,83.736 309.899,83.154 307.400 C 82.898 306.300,82.532 304.950,82.341 304.400 C 81.868 303.035,82.297 306.566,82.803 308.200 C 83.008 308.860,83.661 311.020,84.254 313.000 C 87.191 322.804,95.626 340.118,98.770 342.800 C 98.899 342.910,99.807 344.080,100.787 345.400 C 107.360 354.248,129.074 373.850,131.327 372.969 C 131.704 372.822,138.232 362.743,138.728 361.544 C 138.798 361.374,139.647 360.030,140.614 358.557 C 142.669 355.428,142.769 355.772,139.092 353.329 C 122.919 342.582,109.068 323.016,104.455 304.400 C 102.723 297.413,102.800 300.904,102.800 229.208 C 102.800 191.840,102.691 160.981,102.557 160.633 C 102.344 160.077,100.980 160.000,91.357 160.000 L 80.400 160.000 80.414 227.900 M114.113 229.100 C 114.245 301.503,114.239 301.243,115.840 302.759 C 116.189 303.091,115.656 300.467,115.075 299.000 C 114.715 298.090,114.600 281.233,114.600 229.285 L 114.600 160.770 124.500 160.778 C 129.945 160.782,134.580 160.789,134.800 160.793 C 135.065 160.797,135.209 183.124,135.228 226.900 C 135.244 263.255,135.379 293.308,135.528 293.685 C 135.845 294.484,135.715 162.241,135.398 160.900 L 135.185 160.000 124.586 160.000 L 113.987 160.000 114.113 229.100 M285.431 294.200 C 285.281 295.080,284.995 296.520,284.795 297.400 C 284.160 300.192,283.953 301.899,284.360 301.000 C 284.954 299.686,286.121 293.758,285.904 293.157 C 285.793 292.851,285.580 293.320,285.431 294.200 M297.462 295.200 C 297.288 296.630,296.990 298.340,296.800 299.000 C 296.258 300.891,295.877 303.830,296.217 303.504 C 296.754 302.989,298.078 295.404,297.909 293.814 C 297.824 293.018,297.670 293.495,297.462 295.200 M136.029 295.292 C 135.939 297.434,141.106 309.300,142.781 310.800 C 142.904 310.910,143.804 312.074,144.781 313.387 C 147.225 316.671,152.831 322.275,156.200 324.801 C 157.740 325.956,159.060 327.057,159.133 327.249 C 159.263 327.590,152.325 338.783,149.687 342.488 L 148.342 344.376 145.671 342.706 C 144.202 341.787,142.910 340.933,142.800 340.808 C 142.690 340.682,141.790 339.957,140.800 339.196 C 136.529 335.914,132.062 331.453,128.786 327.200 C 128.024 326.210,127.295 325.310,127.166 325.200 C 125.338 323.641,119.112 311.582,117.200 305.900 C 116.242 303.050,115.746 302.332,116.217 304.476 C 116.796 307.115,119.965 314.079,123.190 319.800 C 127.966 328.274,135.792 336.536,144.762 342.574 C 148.722 345.240,148.527 345.220,149.853 343.100 C 150.437 342.165,151.789 340.092,152.858 338.492 C 153.926 336.893,154.800 335.533,154.800 335.470 C 154.800 335.407,155.970 333.569,157.400 331.385 C 160.498 326.653,160.427 327.236,158.100 325.598 C 147.986 318.476,140.656 308.817,137.158 298.000 C 136.553 296.130,136.045 294.911,136.029 295.292 M263.374 296.700 C 263.241 297.305,262.877 298.479,262.566 299.308 C 261.744 301.498,261.925 302.095,262.809 300.107 C 263.617 298.288,264.240 295.600,263.852 295.600 C 263.722 295.600,263.506 296.095,263.374 296.700 M317.625 301.800 C 317.604 302.020,317.230 303.895,316.793 305.966 C 316.356 308.037,316.080 309.813,316.180 309.913 C 316.279 310.013,316.452 309.668,316.564 309.147 C 316.676 308.626,317.065 306.911,317.429 305.336 C 317.793 303.761,317.994 302.231,317.877 301.936 C 317.759 301.641,317.646 301.580,317.625 301.800 M261.366 302.643 C 259.202 309.135,252.974 317.253,243.908 325.400 L 241.237 327.800 246.535 336.200 C 252.252 345.264,252.233 345.247,254.596 343.400 C 268.236 332.739,277.631 321.360,281.345 311.000 C 281.739 309.900,282.209 308.640,282.387 308.200 C 283.577 305.274,284.455 301.077,283.600 302.400 C 283.387 302.730,283.209 303.465,283.206 304.033 C 283.203 304.602,283.091 305.176,282.957 305.310 C 282.823 305.443,282.211 307.049,281.597 308.877 C 279.509 315.090,275.722 321.916,271.949 326.269 C 266.652 332.379,252.855 345.041,252.239 344.356 C 252.162 344.270,250.594 341.770,248.757 338.800 C 246.919 335.830,245.277 333.340,245.107 333.267 C 244.938 333.193,244.800 332.960,244.800 332.747 C 244.800 332.535,244.170 331.377,243.400 330.173 C 241.716 327.540,241.710 327.478,243.100 326.584 C 244.497 325.684,255.600 314.537,255.600 314.033 C 255.600 313.826,255.837 313.419,256.126 313.129 C 257.826 311.419,262.401 302.667,261.871 302.138 C 261.732 301.999,261.505 302.226,261.366 302.643 M295.358 305.100 C 291.783 320.402,278.040 340.585,263.600 351.739 C 261.730 353.184,259.795 354.688,259.301 355.083 L 258.402 355.800 263.624 364.500 C 269.544 374.362,268.895 373.907,272.925 371.016 C 285.003 362.349,302.282 344.327,304.757 337.813 C 304.843 337.586,305.227 336.950,305.610 336.400 C 308.173 332.719,314.524 317.991,313.843 317.310 C 313.712 317.179,313.491 317.645,313.351 318.344 C 313.211 319.044,312.940 319.714,312.748 319.832 C 312.557 319.950,312.400 320.324,312.400 320.663 C 312.400 321.002,312.148 321.846,311.840 322.540 C 311.532 323.233,310.862 324.790,310.351 326.000 C 307.352 333.095,301.770 342.305,297.099 347.866 C 291.320 354.746,283.591 362.251,277.199 367.190 C 276.209 367.954,275.310 368.693,275.200 368.832 C 274.852 369.271,269.562 372.801,269.275 372.785 C 269.035 372.772,266.569 368.709,262.631 361.839 C 261.989 360.717,260.895 358.914,260.201 357.832 L 258.939 355.864 262.903 352.864 C 267.147 349.652,274.875 342.280,277.437 339.000 C 278.297 337.900,279.111 336.910,279.247 336.800 C 279.660 336.467,284.561 329.555,286.117 327.111 C 287.539 324.880,290.907 318.406,292.107 315.600 C 292.436 314.830,292.976 313.570,293.307 312.800 C 294.788 309.352,296.329 304.000,295.839 304.000 C 295.716 304.000,295.500 304.495,295.358 305.100 M315.402 311.400 C 315.239 312.060,314.834 313.462,314.502 314.516 C 314.170 315.569,313.992 316.526,314.108 316.641 C 314.412 316.946,316.101 311.293,315.883 310.700 C 315.781 310.425,315.565 310.740,315.402 311.400 " stroke="none" fill="#849cc4" fill-rule="evenodd"></path></g></svg>