<svg id="svg" version="1.1" xmlns="http://www.w3.org/2000/svg" xmlns:xlink="http://www.w3.org/1999/xlink" width="400" height="288.76190476190476" viewBox="0, 0, 400,288.76190476190476"><g id="svgg"><path id="path0" d="M76.245 107.896 C 75.690 107.961,74.065 108.143,72.635 108.300 C 36.158 112.308,31.379 153.390,66.268 163.040 C 84.129 167.981,104.988 162.256,113.125 150.181 C 120.009 139.965,118.185 125.784,108.926 117.531 C 101.398 110.822,87.125 106.613,76.245 107.896 M156.823 107.901 C 148.427 108.651,141.487 110.735,136.045 114.142 C 134.100 115.359,134.007 115.290,134.007 112.629 L 134.007 110.312 128.592 110.391 L 123.177 110.469 123.104 146.643 L 123.030 182.816 128.519 182.816 L 134.007 182.816 134.007 170.270 C 134.007 163.369,134.118 157.655,134.254 157.571 C 134.389 157.487,135.112 157.807,135.859 158.281 C 152.694 168.957,180.579 166.071,191.953 152.476 C 203.253 138.970,198.461 120.454,181.541 112.237 C 174.925 109.025,164.575 107.209,156.823 107.901 M237.401 107.901 C 229.131 108.639,223.103 110.394,217.536 113.685 C 214.810 115.297,214.913 115.334,214.814 112.708 L 214.729 110.469 209.242 110.469 L 203.755 110.469 203.771 111.408 C 203.779 111.924,203.812 128.202,203.843 147.581 L 203.899 182.816 209.383 182.816 L 214.868 182.816 214.943 170.132 L 215.018 157.449 217.681 158.973 C 237.346 170.231,266.889 164.557,275.769 147.817 C 286.760 127.099,265.868 105.364,237.401 107.901 M317.978 107.896 C 317.422 107.961,315.798 108.143,314.368 108.300 C 278.052 112.291,272.959 153.307,307.588 162.910 C 315.961 165.232,327.889 165.264,335.451 162.985 C 345.788 159.870,352.642 154.745,356.440 147.292 L 357.249 145.704 357.253 136.237 L 357.256 126.771 356.421 125.118 C 351.990 116.352,341.483 109.872,329.163 108.307 C 326.503 107.969,319.531 107.713,317.978 107.896 M89.623 117.964 C 105.669 122.261,111.581 137.238,101.520 148.104 C 91.464 158.967,64.980 157.912,56.781 146.323 C 49.919 136.625,54.433 123.686,66.217 119.277 C 72.891 116.780,83.070 116.209,89.623 117.964 M166.549 117.279 C 182.622 119.499,191.447 132.475,184.973 144.370 C 176.682 159.603,143.733 159.460,136.055 144.157 C 128.156 128.415,144.279 114.205,166.549 117.279 M250.253 117.806 C 262.206 120.974,267.825 127.406,267.370 137.399 C 266.787 150.184,251.976 158.076,234.108 155.121 C 209.873 151.113,207.721 124.161,231.152 118.103 C 236.290 116.775,245.803 116.627,250.253 117.806 M330.975 117.923 C 345.116 121.663,351.796 133.139,346.168 144.027 C 338.318 159.214,306.033 159.751,297.443 144.838 C 291.384 134.317,297.815 121.575,310.878 118.220 C 316.718 116.720,325.914 116.584,330.975 117.923 " stroke="none" fill="#056c35" fill-rule="evenodd"></path><path id="path1" d="M0.000 144.404 L 0.000 288.809 200.000 288.809 L 400.000 288.809 400.000 144.404 L 400.000 0.000 200.000 0.000 L 0.000 0.000 0.000 144.404 M90.253 108.453 C 109.870 112.594,120.768 126.300,117.000 142.094 C 110.336 170.027,57.644 173.658,44.626 147.082 C 40.840 139.352,41.490 129.942,46.328 122.464 C 53.778 110.947,73.010 104.813,90.253 108.453 M170.686 108.429 C 174.061 109.116,177.290 109.993,178.628 110.588 C 192.316 116.670,197.978 124.199,197.978 136.318 C 197.978 150.045,190.076 158.677,172.852 163.763 C 167.183 165.436,153.998 165.437,148.303 163.764 C 142.888 162.173,139.397 160.744,135.857 158.669 L 134.585 157.923 134.585 170.364 L 134.585 182.805 133.935 182.965 C 133.578 183.053,130.946 183.088,128.087 183.042 L 122.888 182.960 122.888 146.570 L 122.888 110.181 128.664 110.181 L 134.440 110.181 134.524 112.403 L 134.609 114.625 136.370 113.593 C 140.013 111.458,144.427 109.702,148.159 108.903 C 149.032 108.716,150.267 108.432,150.903 108.273 C 155.097 107.223,165.143 107.302,170.686 108.429 M249.242 107.993 C 255.207 109.116,257.981 109.944,261.858 111.761 C 270.374 115.752,276.047 122.086,278.160 129.964 C 279.353 134.408,278.903 142.321,277.277 145.508 C 277.141 145.774,276.613 146.832,276.103 147.858 C 273.933 152.225,269.766 156.417,264.693 159.335 C 261.492 161.177,259.938 161.788,253.377 163.787 C 243.549 166.780,227.019 164.655,217.259 159.143 L 215.169 157.962 215.093 170.461 L 215.018 182.960 209.242 182.960 L 203.466 182.960 203.466 146.570 L 203.466 110.181 209.242 110.181 L 215.018 110.181 215.162 112.399 L 215.307 114.618 216.462 113.895 C 224.655 108.766,239.324 106.125,249.242 107.993 M327.072 107.732 C 340.774 109.064,352.021 115.621,356.668 124.986 L 357.545 126.755 357.545 136.301 L 357.545 145.847 356.354 148.086 C 344.243 170.859,298.218 170.713,286.640 147.865 C 275.560 125.999,296.916 104.801,327.072 107.732 M78.123 117.161 C 62.706 118.644,54.724 124.651,53.824 135.451 C 52.592 150.233,73.173 159.904,92.130 153.452 C 109.099 147.677,111.050 128.185,95.430 120.476 C 90.883 118.232,82.896 116.702,78.123 117.161 M158.556 117.158 C 150.528 118.075,146.890 119.134,142.717 121.771 C 132.985 127.920,131.690 141.227,140.085 148.823 C 151.375 159.041,178.126 156.716,184.285 144.982 C 190.915 132.349,182.943 119.883,166.841 117.706 C 163.278 117.224,159.922 117.002,158.556 117.158 M239.567 117.161 C 221.656 118.890,212.867 127.315,215.586 140.147 C 218.453 153.677,241.021 160.040,257.184 151.877 C 270.696 145.053,270.614 127.297,257.040 120.681 C 251.990 118.220,244.412 116.694,239.567 117.161 M315.235 117.661 C 300.931 119.758,292.561 130.335,296.329 141.554 C 301.958 158.318,336.776 160.500,345.480 144.635 C 354.099 128.927,337.763 114.358,315.235 117.661 " stroke="none" fill="#fbfbfb" fill-rule="evenodd"></path><path id="path2" d="M76.895 107.644 C 77.332 107.710,78.047 107.710,78.484 107.644 C 78.921 107.578,78.563 107.523,77.690 107.523 C 76.816 107.523,76.458 107.578,76.895 107.644 M81.809 107.644 C 82.248 107.710,82.898 107.709,83.253 107.640 C 83.608 107.572,83.249 107.517,82.455 107.519 C 81.661 107.522,81.370 107.578,81.809 107.644 M157.477 107.644 C 157.916 107.710,158.566 107.709,158.921 107.640 C 159.276 107.572,158.917 107.517,158.123 107.519 C 157.329 107.522,157.038 107.578,157.477 107.644 M162.387 107.644 C 162.826 107.710,163.475 107.709,163.831 107.640 C 164.186 107.572,163.827 107.517,163.032 107.519 C 162.238 107.522,161.948 107.578,162.387 107.644 M238.195 107.641 C 238.552 107.709,239.137 107.709,239.495 107.641 C 239.852 107.572,239.560 107.515,238.845 107.515 C 238.130 107.515,237.838 107.572,238.195 107.641 M243.105 107.641 C 243.462 107.709,244.047 107.709,244.404 107.641 C 244.762 107.572,244.469 107.515,243.755 107.515 C 243.040 107.515,242.747 107.572,243.105 107.641 M318.632 107.644 C 319.071 107.710,319.721 107.709,320.076 107.640 C 320.431 107.572,320.072 107.517,319.278 107.519 C 318.484 107.522,318.193 107.578,318.632 107.644 M322.960 107.644 C 323.397 107.710,324.112 107.710,324.549 107.644 C 324.986 107.578,324.628 107.523,323.755 107.523 C 322.881 107.523,322.523 107.578,322.960 107.644 M122.877 110.397 C 122.801 110.596,122.773 127.004,122.814 146.859 L 122.888 182.960 128.375 182.970 L 133.863 182.979 128.445 182.891 L 123.028 182.803 123.102 146.420 C 123.143 126.409,123.140 110.036,123.096 110.036 C 123.051 110.036,122.953 110.199,122.877 110.397 M134.293 112.432 L 134.435 114.801 134.524 112.663 C 134.572 111.487,134.508 110.421,134.382 110.294 C 134.255 110.166,134.215 111.129,134.293 112.432 M203.455 110.397 C 203.379 110.596,203.351 127.004,203.391 146.859 L 203.466 182.960 209.242 182.960 L 215.018 182.960 215.093 170.461 L 215.169 157.961 215.815 158.275 C 216.437 158.576,216.440 158.570,215.901 158.139 C 215.593 157.892,215.236 157.690,215.107 157.690 C 214.979 157.690,214.874 163.343,214.874 170.253 L 214.874 182.816 209.240 182.816 L 203.606 182.816 203.680 146.426 C 203.721 126.412,203.718 110.036,203.673 110.036 C 203.629 110.036,203.530 110.199,203.455 110.397 M214.871 112.432 L 215.013 114.801 215.101 112.663 C 215.150 111.487,215.086 110.421,214.959 110.294 C 214.833 110.166,214.793 111.129,214.871 112.432 M220.650 111.625 C 220.253 111.852,220.058 112.037,220.217 112.037 C 220.375 112.037,220.830 111.852,221.227 111.625 C 221.625 111.398,221.819 111.212,221.661 111.212 C 221.502 111.212,221.047 111.398,220.650 111.625 M292.401 117.329 L 291.552 118.267 292.491 117.419 C 293.007 116.952,293.430 116.530,293.430 116.480 C 293.430 116.257,293.191 116.454,292.401 117.329 M351.480 118.267 C 352.503 119.300,353.406 120.144,353.485 120.144 C 353.565 120.144,352.792 119.300,351.769 118.267 C 350.746 117.235,349.843 116.390,349.764 116.390 C 349.685 116.390,350.457 117.235,351.480 118.267 M49.376 118.628 L 47.798 120.289 49.458 118.710 C 51.001 117.244,51.251 116.968,51.037 116.968 C 50.992 116.968,50.245 117.715,49.376 118.628 M77.329 117.171 C 77.686 117.240,78.271 117.240,78.628 117.171 C 78.986 117.102,78.693 117.046,77.978 117.046 C 77.264 117.046,76.971 117.102,77.329 117.171 M81.372 117.171 C 81.729 117.240,82.314 117.240,82.671 117.171 C 83.029 117.102,82.736 117.046,82.022 117.046 C 81.307 117.046,81.014 117.102,81.372 117.171 M157.910 117.172 C 158.269 117.241,158.789 117.238,159.065 117.166 C 159.341 117.094,159.047 117.037,158.412 117.040 C 157.776 117.044,157.550 117.103,157.910 117.172 M161.949 117.171 C 162.307 117.240,162.892 117.240,163.249 117.171 C 163.606 117.102,163.314 117.046,162.599 117.046 C 161.884 117.046,161.592 117.102,161.949 117.171 M238.632 117.175 C 239.071 117.241,239.721 117.239,240.076 117.171 C 240.431 117.102,240.072 117.048,239.278 117.050 C 238.484 117.052,238.193 117.108,238.632 117.175 M242.816 117.171 C 243.173 117.240,243.758 117.240,244.116 117.171 C 244.473 117.102,244.181 117.046,243.466 117.046 C 242.751 117.046,242.458 117.102,242.816 117.171 M270.903 117.978 C 271.441 118.534,271.947 118.989,272.027 118.989 C 272.106 118.989,271.730 118.534,271.191 117.978 C 270.652 117.422,270.147 116.968,270.067 116.968 C 269.988 116.968,270.364 117.422,270.903 117.978 M320.072 117.181 C 320.986 117.238,322.480 117.238,323.394 117.181 C 324.307 117.124,323.560 117.077,321.733 117.077 C 319.906 117.077,319.159 117.124,320.072 117.181 M74.444 117.461 C 74.803 117.530,75.323 117.527,75.599 117.455 C 75.875 117.382,75.581 117.326,74.946 117.329 C 74.310 117.332,74.085 117.391,74.444 117.461 M84.263 117.461 C 84.623 117.530,85.142 117.527,85.419 117.455 C 85.695 117.382,85.401 117.326,84.765 117.329 C 84.130 117.332,83.904 117.391,84.263 117.461 M155.021 117.461 C 155.381 117.530,155.901 117.527,156.177 117.455 C 156.453 117.382,156.159 117.326,155.523 117.329 C 154.888 117.332,154.662 117.391,155.021 117.461 M164.982 117.455 C 165.260 117.528,165.715 117.528,165.993 117.455 C 166.271 117.383,166.043 117.323,165.487 117.323 C 164.931 117.323,164.704 117.383,164.982 117.455 M235.888 117.461 C 236.247 117.530,236.767 117.527,237.043 117.455 C 237.319 117.382,237.025 117.326,236.390 117.329 C 235.755 117.332,235.529 117.391,235.888 117.461 M245.707 117.461 C 246.067 117.530,246.586 117.527,246.863 117.455 C 247.139 117.382,246.845 117.326,246.209 117.329 C 245.574 117.332,245.348 117.391,245.707 117.461 M316.177 117.461 C 316.536 117.530,317.056 117.527,317.332 117.455 C 317.608 117.382,317.314 117.326,316.679 117.329 C 316.043 117.332,315.817 117.391,316.177 117.461 M325.996 117.461 C 326.355 117.530,326.875 117.527,327.151 117.455 C 327.428 117.382,327.134 117.326,326.498 117.329 C 325.863 117.332,325.637 117.391,325.996 117.461 M290.090 119.639 L 289.242 120.578 290.181 119.729 C 290.697 119.263,291.119 118.840,291.119 118.791 C 291.119 118.568,290.881 118.764,290.090 119.639 M58.618 124.404 L 57.040 126.065 58.700 124.486 C 60.243 123.020,60.493 122.744,60.279 122.744 C 60.234 122.744,59.487 123.491,58.618 124.404 M139.206 124.332 C 138.504 125.047,137.995 125.632,138.075 125.632 C 138.154 125.632,138.793 125.047,139.495 124.332 C 140.196 123.617,140.705 123.032,140.626 123.032 C 140.546 123.032,139.907 123.617,139.206 124.332 M181.516 124.188 C 182.137 124.823,182.709 125.343,182.789 125.343 C 182.868 125.343,182.425 124.823,181.805 124.188 C 181.185 123.552,180.612 123.032,180.533 123.032 C 180.453 123.032,180.896 123.552,181.516 124.188 M219.783 124.332 C 219.082 125.047,218.573 125.632,218.652 125.632 C 218.732 125.632,219.371 125.047,220.072 124.332 C 220.774 123.617,221.283 123.032,221.203 123.032 C 221.124 123.032,220.485 123.617,219.783 124.332 M262.383 124.477 C 263.165 125.271,263.870 125.921,263.949 125.921 C 264.029 125.921,263.454 125.271,262.671 124.477 C 261.889 123.682,261.184 123.032,261.105 123.032 C 261.025 123.032,261.600 123.682,262.383 124.477 M357.386 136.318 C 357.386 141.798,357.425 144.040,357.472 141.300 C 357.520 138.560,357.520 134.076,357.472 131.336 C 357.425 128.596,357.386 130.838,357.386 136.318 M216.653 128.677 C 216.170 129.739,216.262 129.965,216.785 129.000 C 217.029 128.549,217.175 128.126,217.109 128.060 C 217.043 127.994,216.838 128.271,216.653 128.677 M117.323 133.141 C 117.323 133.697,117.383 133.924,117.455 133.646 C 117.528 133.368,117.528 132.913,117.455 132.635 C 117.383 132.357,117.323 132.585,117.323 133.141 M105.777 133.863 C 105.780 134.498,105.839 134.724,105.908 134.365 C 105.977 134.006,105.975 133.486,105.902 133.210 C 105.830 132.934,105.774 133.227,105.777 133.863 M42.274 136.173 C 42.275 137.921,42.322 138.598,42.380 137.679 C 42.437 136.760,42.437 135.330,42.379 134.502 C 42.320 133.674,42.273 134.426,42.274 136.173 M278.807 136.318 C 278.807 137.986,278.855 138.668,278.913 137.834 C 278.972 137.000,278.972 135.635,278.913 134.801 C 278.855 133.968,278.807 134.650,278.807 136.318 M295.524 134.729 C 295.527 135.365,295.586 135.591,295.656 135.231 C 295.725 134.872,295.722 134.352,295.650 134.076 C 295.577 133.800,295.521 134.094,295.524 134.729 M134.388 136.318 C 134.388 137.350,134.441 137.773,134.505 137.256 C 134.569 136.740,134.569 135.895,134.505 135.379 C 134.441 134.863,134.388 135.285,134.388 136.318 M117.632 136.318 C 117.632 137.191,117.686 137.549,117.752 137.112 C 117.818 136.675,117.818 135.960,117.752 135.523 C 117.686 135.087,117.632 135.444,117.632 136.318 M214.941 136.318 C 214.941 136.874,215.000 137.101,215.073 136.823 C 215.145 136.545,215.145 136.090,215.073 135.812 C 215.000 135.534,214.941 135.762,214.941 136.318 M295.530 137.762 C 295.530 138.477,295.586 138.769,295.655 138.412 C 295.724 138.054,295.724 137.469,295.655 137.112 C 295.586 136.755,295.530 137.047,295.530 137.762 M105.777 138.773 C 105.780 139.408,105.839 139.634,105.908 139.275 C 105.977 138.915,105.975 138.396,105.902 138.119 C 105.830 137.843,105.774 138.137,105.777 138.773 M117.323 139.495 C 117.323 140.051,117.383 140.278,117.455 140.000 C 117.528 139.722,117.528 139.267,117.455 138.989 C 117.383 138.711,117.323 138.939,117.323 139.495 M185.736 141.548 C 185.558 142.059,185.463 142.527,185.525 142.589 C 185.587 142.650,185.783 142.283,185.961 141.773 C 186.139 141.263,186.234 140.794,186.172 140.733 C 186.110 140.671,185.914 141.038,185.736 141.548 M116.133 144.436 C 115.955 144.947,115.860 145.415,115.922 145.477 C 115.984 145.539,116.180 145.171,116.358 144.661 C 116.536 144.151,116.631 143.683,116.569 143.621 C 116.507 143.559,116.311 143.926,116.133 144.436 M277.305 144.678 C 277.136 145.163,277.059 145.560,277.134 145.560 C 277.329 145.560,277.874 144.059,277.731 143.916 C 277.666 143.851,277.474 144.194,277.305 144.678 M300.217 148.159 C 301.160 149.112,301.996 149.892,302.076 149.892 C 302.155 149.892,301.449 149.112,300.505 148.159 C 299.562 147.206,298.726 146.426,298.646 146.426 C 298.567 146.426,299.273 147.206,300.217 148.159 M58.484 148.159 C 59.104 148.794,59.677 149.314,59.756 149.314 C 59.836 149.314,59.393 148.794,58.773 148.159 C 58.152 147.523,57.580 147.004,57.500 147.004 C 57.421 147.004,57.863 147.523,58.484 148.159 M342.658 148.231 L 341.516 149.458 342.744 148.317 C 343.419 147.689,343.971 147.137,343.971 147.089 C 343.971 146.871,343.720 147.090,342.658 148.231 M139.206 148.303 C 139.745 148.859,140.250 149.314,140.330 149.314 C 140.409 149.314,140.033 148.859,139.495 148.303 C 138.956 147.747,138.450 147.292,138.370 147.292 C 138.291 147.292,138.667 147.747,139.206 148.303 M181.787 148.231 L 180.939 149.170 181.877 148.321 C 182.394 147.855,182.816 147.432,182.816 147.383 C 182.816 147.160,182.578 147.356,181.787 148.231 M262.223 148.375 L 261.227 149.458 262.310 148.463 C 263.319 147.537,263.526 147.292,263.306 147.292 C 263.257 147.292,262.770 147.780,262.223 148.375 M191.895 152.852 L 191.047 153.791 191.986 152.942 C 192.502 152.476,192.924 152.053,192.924 152.004 C 192.924 151.781,192.686 151.977,191.895 152.852 M109.739 154.440 L 107.870 156.390 109.819 154.521 C 110.892 153.493,111.769 152.616,111.769 152.572 C 111.769 152.359,111.475 152.630,109.739 154.440 M351.470 154.440 L 349.892 156.101 351.552 154.523 C 353.095 153.056,353.345 152.780,353.131 152.780 C 353.086 152.780,352.338 153.527,351.470 154.440 M49.386 154.079 C 49.925 154.635,50.431 155.090,50.510 155.090 C 50.590 155.090,50.214 154.635,49.675 154.079 C 49.136 153.523,48.630 153.069,48.551 153.069 C 48.472 153.069,48.847 153.523,49.386 154.079 M91.986 153.512 C 91.263 153.860,91.239 153.900,91.841 153.753 C 92.659 153.553,93.579 153.084,93.141 153.090 C 92.982 153.093,92.462 153.282,91.986 153.512 M291.119 154.079 C 291.658 154.635,292.164 155.090,292.243 155.090 C 292.323 155.090,291.947 154.635,291.408 154.079 C 290.869 153.523,290.363 153.069,290.284 153.069 C 290.204 153.069,290.580 153.523,291.119 154.079 M308.448 153.309 C 308.686 153.456,309.206 153.663,309.603 153.769 C 310.105 153.904,310.193 153.881,309.892 153.695 C 309.653 153.548,309.134 153.340,308.736 153.234 C 308.235 153.100,308.147 153.123,308.448 153.309 M333.718 153.512 C 332.996 153.860,332.972 153.900,333.574 153.753 C 334.392 153.553,335.312 153.084,334.874 153.090 C 334.715 153.093,334.195 153.282,333.718 153.512 M134.365 170.325 L 134.434 182.960 134.513 170.454 C 134.571 161.159,134.676 158.000,134.921 158.152 C 135.125 158.278,135.173 158.228,135.046 158.023 C 134.385 156.954,134.300 158.488,134.365 170.325 M262.744 160.165 C 261.664 160.751,261.730 160.995,262.816 160.433 C 263.292 160.187,263.682 159.924,263.682 159.848 C 263.682 159.662,263.651 159.673,262.744 160.165 M259.639 161.588 C 259.242 161.815,259.047 162.001,259.206 162.001 C 259.365 162.001,259.819 161.815,260.217 161.588 C 260.614 161.361,260.809 161.176,260.650 161.176 C 260.491 161.176,260.036 161.361,259.639 161.588 M77.338 165.123 C 78.177 165.182,79.477 165.181,80.226 165.122 C 80.975 165.062,80.289 165.014,78.700 165.015 C 77.112 165.016,76.499 165.064,77.338 165.123 M159.061 165.123 C 159.895 165.181,161.260 165.181,162.094 165.123 C 162.928 165.064,162.245 165.017,160.578 165.017 C 158.910 165.017,158.227 165.064,159.061 165.123 M240.511 165.119 C 241.030 165.183,241.809 165.182,242.243 165.116 C 242.677 165.050,242.253 164.998,241.300 164.999 C 240.347 165.001,239.991 165.055,240.511 165.119 M319.206 165.122 C 319.960 165.182,321.195 165.182,321.949 165.122 C 322.704 165.063,322.087 165.014,320.578 165.014 C 319.069 165.014,318.451 165.063,319.206 165.122 " stroke="none" fill="#9dc9b2" fill-rule="evenodd"></path><path id="path3" d="M75.166 107.933 C 75.605 107.999,76.255 107.997,76.610 107.929 C 76.966 107.860,76.606 107.806,75.812 107.808 C 75.018 107.810,74.727 107.866,75.166 107.933 M83.249 107.932 C 83.686 107.999,84.401 107.999,84.838 107.932 C 85.274 107.866,84.917 107.812,84.043 107.812 C 83.170 107.812,82.812 107.866,83.249 107.932 M155.740 107.932 C 156.177 107.999,156.892 107.999,157.329 107.932 C 157.765 107.866,157.408 107.812,156.534 107.812 C 155.661 107.812,155.303 107.866,155.740 107.932 M163.827 107.932 C 164.264 107.999,164.978 107.999,165.415 107.932 C 165.852 107.866,165.495 107.812,164.621 107.812 C 163.747 107.812,163.390 107.866,163.827 107.932 M236.318 107.932 C 236.755 107.999,237.469 107.999,237.906 107.932 C 238.343 107.866,237.986 107.812,237.112 107.812 C 236.238 107.812,235.881 107.866,236.318 107.932 M244.404 107.932 C 244.841 107.999,245.556 107.999,245.993 107.932 C 246.430 107.866,246.072 107.812,245.199 107.812 C 244.325 107.812,243.968 107.866,244.404 107.932 M316.606 107.932 C 317.043 107.999,317.758 107.999,318.195 107.932 C 318.632 107.866,318.274 107.812,317.401 107.812 C 316.527 107.812,316.170 107.866,316.606 107.932 M324.986 107.933 C 325.425 107.999,326.075 107.997,326.430 107.929 C 326.785 107.860,326.426 107.806,325.632 107.808 C 324.838 107.810,324.547 107.866,324.986 107.933 M134.064 112.708 C 134.014 114.670,134.070 114.945,134.513 114.941 C 134.856 114.938,134.907 114.866,134.672 114.717 C 134.475 114.592,134.281 113.627,134.223 112.483 L 134.120 110.469 134.064 112.708 M203.750 147.581 C 203.750 167.040,203.784 175.000,203.827 165.271 C 203.869 155.542,203.869 139.621,203.827 129.892 C 203.784 120.162,203.750 128.123,203.750 147.581 M292.689 117.329 L 291.841 118.267 292.780 117.419 C 293.296 116.952,293.718 116.530,293.718 116.480 C 293.718 116.257,293.480 116.454,292.689 117.329 M271.047 118.412 C 271.829 119.206,272.534 119.856,272.614 119.856 C 272.693 119.856,272.118 119.206,271.336 118.412 C 270.553 117.617,269.848 116.968,269.769 116.968 C 269.690 116.968,270.265 117.617,271.047 118.412 M189.747 117.635 C 189.747 117.685,190.170 118.108,190.686 118.574 L 191.625 119.422 190.776 118.484 C 189.986 117.609,189.747 117.412,189.747 117.635 M48.935 119.350 L 48.087 120.289 49.025 119.441 C 49.900 118.650,50.097 118.412,49.874 118.412 C 49.824 118.412,49.401 118.834,48.935 119.350 M290.090 119.928 L 289.242 120.866 290.181 120.018 C 290.697 119.552,291.119 119.129,291.119 119.080 C 291.119 118.856,290.881 119.053,290.090 119.928 M58.470 124.260 L 57.329 125.487 58.556 124.346 C 59.697 123.284,59.916 123.032,59.698 123.032 C 59.650 123.032,59.098 123.585,58.470 124.260 M138.917 124.332 C 138.215 125.047,137.706 125.632,137.786 125.632 C 137.865 125.632,138.504 125.047,139.206 124.332 C 139.907 123.617,140.416 123.032,140.337 123.032 C 140.257 123.032,139.618 123.617,138.917 124.332 M180.794 123.123 C 180.794 123.173,181.217 123.595,181.733 124.061 L 182.671 124.910 181.823 123.971 C 181.033 123.096,180.794 122.900,180.794 123.123 M262.383 124.188 C 263.003 124.823,263.576 125.343,263.655 125.343 C 263.735 125.343,263.292 124.823,262.671 124.188 C 262.051 123.552,261.478 123.032,261.399 123.032 C 261.320 123.032,261.762 123.552,262.383 124.188 M341.661 123.123 C 341.661 123.173,342.083 123.595,342.599 124.061 L 343.538 124.910 342.690 123.971 C 341.899 123.096,341.661 122.900,341.661 123.123 M219.621 124.260 L 218.773 125.199 219.711 124.350 C 220.227 123.884,220.650 123.461,220.650 123.412 C 220.650 123.189,220.412 123.385,219.621 124.260 M186.643 133.863 C 186.646 134.498,186.706 134.724,186.775 134.365 C 186.844 134.006,186.841 133.486,186.769 133.210 C 186.697 132.934,186.640 133.227,186.643 133.863 M106.095 136.173 C 106.094 137.603,106.143 138.224,106.204 137.554 C 106.264 136.884,106.265 135.714,106.205 134.955 C 106.146 134.195,106.096 134.744,106.095 136.173 M295.263 136.318 C 295.263 137.668,295.313 138.220,295.374 137.545 C 295.435 136.870,295.435 135.765,295.374 135.090 C 295.313 134.415,295.263 134.968,295.263 136.318 M347.827 136.318 C 347.827 137.668,347.876 138.220,347.937 137.545 C 347.998 136.870,347.998 135.765,347.937 135.090 C 347.876 134.415,347.827 134.968,347.827 136.318 M117.351 136.173 C 117.352 137.285,117.405 137.705,117.467 137.105 C 117.530 136.506,117.529 135.597,117.465 135.084 C 117.401 134.571,117.350 135.061,117.351 136.173 M134.080 136.173 C 134.083 136.809,134.142 137.035,134.211 136.675 C 134.281 136.316,134.278 135.796,134.206 135.520 C 134.133 135.244,134.077 135.538,134.080 136.173 M283.972 136.462 C 283.975 137.097,284.034 137.323,284.103 136.964 C 284.172 136.605,284.170 136.085,284.097 135.809 C 284.025 135.533,283.969 135.827,283.972 136.462 M42.528 138.484 C 42.531 139.119,42.590 139.345,42.659 138.986 C 42.728 138.627,42.726 138.107,42.653 137.831 C 42.581 137.554,42.525 137.848,42.528 138.484 M186.637 138.628 C 186.637 139.184,186.697 139.412,186.769 139.134 C 186.842 138.856,186.842 138.401,186.769 138.123 C 186.697 137.845,186.637 138.072,186.637 138.628 M300.217 148.448 C 300.999 149.242,301.704 149.892,301.783 149.892 C 301.863 149.892,301.288 149.242,300.505 148.448 C 299.723 147.653,299.018 147.004,298.939 147.004 C 298.859 147.004,299.434 147.653,300.217 148.448 M57.473 147.383 C 57.473 147.432,57.895 147.855,58.412 148.321 L 59.350 149.170 58.502 148.231 C 57.711 147.356,57.473 147.160,57.473 147.383 M342.610 148.455 C 341.942 149.086,341.493 149.603,341.613 149.603 C 341.734 149.603,342.340 149.083,342.960 148.448 C 344.412 146.961,344.188 146.966,342.610 148.455 M110.740 153.141 L 109.892 154.079 110.830 153.231 C 111.705 152.440,111.902 152.202,111.679 152.202 C 111.629 152.202,111.206 152.625,110.740 153.141 M351.616 154.007 L 349.892 155.812 351.697 154.088 C 353.373 152.487,353.634 152.202,353.421 152.202 C 353.376 152.202,352.564 153.014,351.616 154.007 M291.408 154.079 C 292.271 154.953,293.042 155.668,293.121 155.668 C 293.200 155.668,292.560 154.953,291.697 154.079 C 290.834 153.206,290.063 152.491,289.984 152.491 C 289.904 152.491,290.545 153.206,291.408 154.079 M49.819 154.224 C 50.440 154.859,51.013 155.379,51.092 155.379 C 51.171 155.379,50.729 154.859,50.108 154.224 C 49.488 153.588,48.915 153.069,48.836 153.069 C 48.756 153.069,49.199 153.588,49.819 154.224 M271.029 154.296 L 270.181 155.235 271.119 154.386 C 271.994 153.596,272.191 153.357,271.967 153.357 C 271.918 153.357,271.495 153.780,271.029 154.296 M108.718 155.162 L 107.870 156.101 108.809 155.253 C 109.684 154.462,109.880 154.224,109.657 154.224 C 109.607 154.224,109.185 154.646,108.718 155.162 M77.775 155.594 C 79.013 155.648,80.963 155.648,82.107 155.593 C 83.251 155.539,82.238 155.494,79.856 155.495 C 77.473 155.495,76.537 155.540,77.775 155.594 M158.339 155.594 C 159.570 155.648,161.585 155.648,162.816 155.594 C 164.047 155.540,163.040 155.495,160.578 155.495 C 158.116 155.495,157.108 155.540,158.339 155.594 M238.930 155.594 C 240.168 155.648,242.118 155.648,243.262 155.593 C 244.407 155.539,243.394 155.494,241.011 155.495 C 238.628 155.495,237.692 155.540,238.930 155.594 M319.495 155.594 C 320.726 155.648,322.740 155.648,323.971 155.594 C 325.202 155.540,324.195 155.495,321.733 155.495 C 319.271 155.495,318.264 155.540,319.495 155.594 M134.139 157.762 C 134.063 157.960,134.035 163.711,134.076 170.542 L 134.152 182.960 134.296 170.180 C 134.376 163.151,134.404 157.401,134.359 157.401 C 134.314 157.401,134.216 157.563,134.139 157.762 M75.884 164.825 C 76.242 164.894,76.827 164.894,77.184 164.825 C 77.542 164.756,77.249 164.700,76.534 164.700 C 75.819 164.700,75.527 164.756,75.884 164.825 M80.210 164.829 C 80.723 164.893,81.633 164.894,82.232 164.832 C 82.831 164.769,82.412 164.717,81.300 164.716 C 80.188 164.714,79.697 164.766,80.210 164.829 M157.184 164.820 C 157.462 164.893,157.917 164.893,158.195 164.820 C 158.473 164.747,158.245 164.688,157.690 164.688 C 157.134 164.688,156.906 164.747,157.184 164.820 M163.108 164.825 C 163.467 164.894,163.987 164.892,164.263 164.819 C 164.539 164.747,164.245 164.691,163.610 164.694 C 162.975 164.697,162.749 164.756,163.108 164.825 M239.061 164.835 C 240.213 164.890,242.097 164.890,243.249 164.835 C 244.401 164.781,243.458 164.736,241.155 164.736 C 238.852 164.736,237.910 164.781,239.061 164.835 M319.061 164.835 C 320.213 164.890,322.097 164.890,323.249 164.835 C 324.401 164.781,323.458 164.736,321.155 164.736 C 318.852 164.736,317.910 164.781,319.061 164.835 " stroke="none" fill="#74af94" fill-rule="evenodd"></path><path id="path4" d="M79.642 107.641 C 80.002 107.710,80.521 107.708,80.798 107.635 C 81.074 107.563,80.780 107.506,80.144 107.510 C 79.509 107.513,79.283 107.572,79.642 107.641 M159.928 107.641 C 160.285 107.709,160.870 107.709,161.227 107.641 C 161.585 107.572,161.292 107.515,160.578 107.515 C 159.863 107.515,159.570 107.572,159.928 107.641 M240.654 107.644 C 241.093 107.710,241.743 107.709,242.098 107.640 C 242.453 107.572,242.094 107.517,241.300 107.519 C 240.505 107.522,240.215 107.578,240.654 107.644 M320.939 107.636 C 321.217 107.709,321.671 107.709,321.949 107.636 C 322.227 107.563,322.000 107.504,321.444 107.504 C 320.888 107.504,320.661 107.563,320.939 107.636 M125.054 110.234 C 129.648 110.442,134.231 110.451,134.108 110.253 C 134.034 110.134,131.544 110.062,128.575 110.093 C 125.606 110.124,124.022 110.187,125.054 110.234 M206.585 110.252 C 208.142 110.304,210.612 110.303,212.073 110.251 C 213.534 110.199,212.260 110.156,209.242 110.156 C 206.224 110.157,205.028 110.200,206.585 110.252 M186.657 136.318 C 186.657 137.191,186.711 137.549,186.777 137.112 C 186.843 136.675,186.843 135.960,186.777 135.523 C 186.711 135.087,186.657 135.444,186.657 136.318 " stroke="none" fill="#7dac94" fill-rule="evenodd"></path></g></svg>